<svg xmlns="http://www.w3.org/2000/svg" viewBox="1008 335 260 69.169">
  <defs>
    <style>
      .cls-1 {
        fill: #fafafa;
      }
    </style>
  </defs>
  <path id="Union_35" data-name="Union 35" class="cls-1" d="M-716.27-189.832V-202.1h1.843v.989h.045a2.3,2.3,0,0,1,2.067-1.123c1.213,0,1.978.9,1.978,2.607v4.449c0,1.708-.764,2.607-1.978,2.607-.854,0-1.258-.359-2.022-.989v3.73Zm1.933-10.337v5.483a1.942,1.942,0,0,0,1.124.494c.539,0,.944-.269.944-1.528v-3.461c0-1.213-.4-1.483-.944-1.483A2.22,2.22,0,0,0-714.337-200.169Zm152.764,4.09v-2.742c0-2.067.809-3.461,3.011-3.461s3.011,1.438,3.011,3.461v2.742c0,2.022-.809,3.46-3.011,3.46S-561.573-194.056-561.573-196.079Zm1.888-3.1v3.416c0,1.078.36,1.528,1.079,1.528.674,0,1.078-.449,1.078-1.528v-3.416c0-1.079-.359-1.528-1.078-1.528S-559.686-200.259-559.686-199.18Zm-21.348,4.449c0-2.022,1.349-3.146,4.135-4.225v-.54c0-.764-.315-1.213-.944-1.213-.9,0-1.078.54-1.124,1.3h-1.975a2.85,2.85,0,0,1,3.1-2.877c1.8,0,2.831.809,2.831,2.517v5.977a7.41,7.41,0,0,0,.135.989h-1.843c0-.27-.09-.494-.09-.719a3.318,3.318,0,0,1-2.247.9A1.9,1.9,0,0,1-581.034-194.73Zm1.888-.315c0,.629.315.854.9.854a1.713,1.713,0,0,0,1.3-.854v-2.472C-578.7-196.528-579.146-195.854-579.146-195.045Zm-19.371-.18,1.708-.449c.135.764.4,1.483,1.3,1.483a.791.791,0,0,0,.854-.809c0-1.618-3.641-2.2-3.641-4.764a2.444,2.444,0,0,1,2.607-2.472,2.822,2.822,0,0,1,2.831,2.472l-1.663.224c-.135-.764-.494-1.169-1.124-1.169a.758.758,0,0,0-.854.764c0,1.438,3.64,2.022,3.64,4.809a2.411,2.411,0,0,1-2.7,2.517A2.835,2.835,0,0,1-598.517-195.225Zm-53.438-.854v-2.742c0-2.067.809-3.461,3.011-3.461s3.011,1.438,3.011,3.461v1.753h-4.09v1.349c0,1.078.36,1.528,1.078,1.528.674,0,1.079-.449,1.079-1.528v-.225h1.933c-.045,1.978-.854,3.326-3.011,3.326C-651.146-192.618-651.955-194.056-651.955-196.079Zm1.888-3.1v.494h2.157v-.494c0-1.079-.36-1.528-1.079-1.528S-650.067-200.259-650.067-199.18Zm-20.584,3.955,1.708-.449c.135.764.4,1.483,1.3,1.483a.791.791,0,0,0,.854-.809c0-1.618-3.64-2.2-3.64-4.764a2.445,2.445,0,0,1,2.607-2.472,2.822,2.822,0,0,1,2.831,2.472l-1.618.224c-.135-.764-.494-1.169-1.124-1.169a.758.758,0,0,0-.854.764c0,1.438,3.64,2.022,3.64,4.809a2.446,2.446,0,0,1-2.742,2.517A2.835,2.835,0,0,1-670.652-195.225Zm-7.281-.854v-2.742c0-2.067.809-3.461,3.011-3.461s3.011,1.438,3.011,3.461v1.753H-676v1.349c0,1.078.4,1.528,1.078,1.528s1.079-.449,1.079-1.528v-.225h1.933c-.045,1.978-.854,3.326-3.011,3.326C-677.124-192.618-677.933-194.056-677.933-196.079Zm1.933-3.1v.494h2.157v-.494c0-1.079-.36-1.528-1.079-1.528C-675.6-200.708-676-200.259-676-199.18Zm-15.371,3.1v-2.742c0-2.067.809-3.461,3.011-3.461s3.011,1.438,3.011,3.461v2.742c0,2.022-.809,3.46-3.011,3.46S-691.371-194.056-691.371-196.079Zm1.887-3.1v3.416c0,1.078.36,1.528,1.079,1.528.674,0,1.079-.449,1.079-1.528v-3.416c0-1.079-.4-1.528-1.079-1.528S-689.483-200.259-689.483-199.18Zm-19.191,3.1v-2.742c0-2.067.809-3.461,3.011-3.461s3.011,1.438,3.011,3.461v1.753h-4.09v1.349c0,1.078.4,1.528,1.078,1.528s1.079-.449,1.079-1.528v-.225h1.933c-.045,1.978-.854,3.326-3.011,3.326C-707.865-192.618-708.674-194.056-708.674-196.079Zm1.933-3.1v.494h2.157v-.494c0-1.079-.36-1.528-1.079-1.528C-706.337-200.708-706.742-200.259-706.742-199.18Zm-17.214,4.629V-202.1h1.933v7.236a.614.614,0,0,0,.674.674,2.439,2.439,0,0,0,1.259-.584V-202.1h1.932v9.3H-720v-.944a3.153,3.153,0,0,1-2.337,1.123C-723.371-192.618-723.955-193.382-723.955-194.551Zm-8.18-1.528,2.022-.315c.09,1.258.584,1.888,1.3,1.888a1.1,1.1,0,0,0,1.258-1.124c0-2.472-4.36-3.146-4.36-6.742,0-1.978,1.214-3.1,3.326-3.1,1.753,0,2.786,1.258,2.966,3.011l-2.023.27c-.09-1.079-.674-1.393-1.124-1.393-.674,0-1.079.449-1.079,1.213,0,2.112,4.36,3.146,4.36,6.562,0,2.068-1.393,3.191-3.416,3.191A3.3,3.3,0,0,1-732.135-196.079Zm159.011-.045v-2.742c0-2.067.809-3.461,3.011-3.461,2.158,0,2.967,1.349,3.011,3.371h-1.933v-.225c0-1.079-.36-1.528-1.079-1.528s-1.078.449-1.078,1.528v3.416c0,1.078.36,1.528,1.078,1.528.674,0,1.079-.449,1.079-1.528v-.585h1.933v.225c0,2.022-.809,3.46-3.011,3.46S-573.124-194.1-573.124-196.124Zm-17.843,1.348v-5.8h-1.079V-202.1h1.079v-2.517h1.933v2.517h1.3v1.573h-1.3v5.348c0,.494.224.764.674.764h.629v1.663a2.936,2.936,0,0,1-.989.09C-590.157-192.663-590.966-193.337-590.966-194.775Zm-41.8-.494v-4.4c0-1.708.764-2.607,1.978-2.607.854,0,1.258.36,2.022.989v-4h1.933V-192.8h-1.842v-.989h-.045a2.3,2.3,0,0,1-2.067,1.124C-632-192.663-632.764-193.562-632.764-195.27Zm1.933-3.955v3.461c0,1.213.4,1.528.944,1.528a2.22,2.22,0,0,0,1.123-.494v-5.483a2.071,2.071,0,0,0-1.123-.495C-630.427-200.708-630.832-200.438-630.832-199.225Zm-28.854,3.955v-4.4c0-1.708.764-2.607,1.978-2.607.854,0,1.258.36,2.022.989v-4h1.933V-192.8H-655.6v-.989h-.045a2.3,2.3,0,0,1-2.067,1.124C-658.921-192.663-659.685-193.562-659.685-195.27Zm1.933-3.955v3.461c0,1.213.4,1.528.944,1.528a2.072,2.072,0,0,0,1.124-.494v-5.483a1.942,1.942,0,0,0-1.124-.495C-657.348-200.708-657.753-200.438-657.753-199.225Zm107.82,6.472v-7.236a.615.615,0,0,0-.674-.674,2.439,2.439,0,0,0-1.259.584v7.326H-553.8V-202.1h1.842v.944a3,3,0,0,1,2.337-1.124c1.034,0,1.618.764,1.618,1.978v7.551Zm-55.775,0v-7.236a.615.615,0,0,0-.674-.674,2.438,2.438,0,0,0-1.258.584v7.326h-1.933V-202.1h1.843v.944a3,3,0,0,1,2.337-1.124c1.034,0,1.618.764,1.618,1.978v7.551Zm-11.505,0v-7.236a.636.636,0,0,0-.674-.674,2.174,2.174,0,0,0-1.214.584v7.326h-1.978v-7.281a.636.636,0,0,0-.674-.674,2.438,2.438,0,0,0-1.258.584v7.326h-1.933v-9.3h1.842v.944c.809-.719,1.214-1.124,2.158-1.124a1.631,1.631,0,0,1,1.708,1.124c.944-.9,1.438-1.124,2.157-1.124,1.213,0,1.8.764,1.8,1.978v7.551Zm-190.787,0V-259h22.742A13.118,13.118,0,0,0-788-256.8a13.112,13.112,0,0,0-2.742,4.674,17.5,17.5,0,0,0-.944,5.843,13.991,13.991,0,0,0,1.034,5.573,12.614,12.614,0,0,0,2.831,4.36,12.424,12.424,0,0,0,4.315,2.831,13.129,13.129,0,0,0-1.393.629,7.749,7.749,0,0,0-2.741,2.651,7.874,7.874,0,0,0-1.034,4.315,5.645,5.645,0,0,0,.764,3.011,6.216,6.216,0,0,0,1.978,2.068,10.272,10.272,0,0,0,2.831,1.3c1.078.315,2.157.629,3.236.854a40.112,40.112,0,0,1,6.382,1.708c1.528.539,2.292,1.393,2.292,2.517a2.8,2.8,0,0,1-.494,1.663,3.389,3.389,0,0,1-1.213,1.034,6.287,6.287,0,0,1-1.618.584,7.487,7.487,0,0,1-1.663.18,8.332,8.332,0,0,1-2.157-.27,5.731,5.731,0,0,1-1.843-.809,4.018,4.018,0,0,1-1.3-1.438,3.815,3.815,0,0,1-.494-2.067H-789.3a9.161,9.161,0,0,0,1.259,4.539,8.778,8.778,0,0,0,2.966,2.921,13.132,13.132,0,0,0,4.09,1.573,23.343,23.343,0,0,0,4.719.494,22.764,22.764,0,0,0,4.629-.449,11.526,11.526,0,0,0,4.045-1.573,8.351,8.351,0,0,0,2.607-2.562,6.707,6.707,0,0,0,1.842,2.2,8.582,8.582,0,0,0,3.011,1.483,14.031,14.031,0,0,0,3.685.449,17.261,17.261,0,0,0,5.034-.719,10.058,10.058,0,0,0,4.315-2.562c.045.449.09.9.18,1.348a10.3,10.3,0,0,0,.36,1.258h4.989l-.18.09v14.337Zm242.7-.045v-9.3h1.933v9.3Zm-21.168,0v-9.3h1.842v1.079h.045a2.491,2.491,0,0,1,2.2-1.259h.4v2.022a4.421,4.421,0,0,0-1.258-.18,1.212,1.212,0,0,0-1.3,1.258v6.382Zm-15.371,0v-9.3h1.933v9.3Zm-11.551,0v-9.3h1.933v9.3Zm-22.472,0-.4-2.787h-2.337l-.36,2.787h-2.067l2.292-12.494h2.651L-633.8-192.8Zm-2.427-4.629h1.753l-.854-5.348h-.045Zm-45.3,4.629v-9.3h1.843v1.079h.045a2.442,2.442,0,0,1,2.2-1.259h.4v2.022a4.421,4.421,0,0,0-1.258-.18,1.212,1.212,0,0,0-1.3,1.258v6.382Zm-11.506,0v-9.3h1.933v9.3Zm-5.8,0v-9.3h1.843v1.079h.045a2.44,2.44,0,0,1,2.2-1.259h.4v2.022a4.42,4.42,0,0,0-1.258-.18,1.212,1.212,0,0,0-1.3,1.258v6.382Zm119.955-6.607h0c0,.015,0,.03,0,.045Zm21.123-3.82,1.348-2.472h2.337l-2.247,2.472Zm-5.483-.315v-1.753h1.933v1.753Zm-36.539,0v-1.753h1.933v1.753Zm-11.551,0v-1.753h1.933v1.753Zm-81.708,0v-1.753h1.933v1.753Zm-9.3-7.236a1.532,1.532,0,0,1,1.259-1.438v-.045a1.241,1.241,0,0,1-.9-1.169c0-.629.674-1.213,1.169-1.528-.989-.674-1.258-1.169-1.258-3.326,0-2.562.809-3.416,3.011-3.416a2.855,2.855,0,0,1,2.157.989c.539-.764.809-.989,1.618-.989v1.573h-.315a1.662,1.662,0,0,0-.944.27,6.269,6.269,0,0,1,.224,1.483c0,2.831-.989,3.73-2.966,3.73h-.585a.437.437,0,0,0-.359.449c0,1.258,4.989-.629,4.989,2.7,0,1.573-1.483,2.2-4,2.2C-703.236-209.292-704.4-209.787-704.4-210.776Zm2.022-.584c0,.494.36.674,1.663.674s1.663-.225,1.663-.674c0-.494-.36-.674-1.663-.674S-702.382-211.809-702.382-211.36Zm.09-6.832c0,1.573.359,1.978.989,1.978.764,0,.989-.4.989-1.978s-.224-1.933-.989-1.933C-701.933-220.124-702.292-219.764-702.292-218.191Zm-53.079,6.652a3.64,3.64,0,0,1-1.483-.54,2.973,2.973,0,0,1-1.034-1.078,3.248,3.248,0,0,1-.36-1.663,3.912,3.912,0,0,1,.36-1.753,3.963,3.963,0,0,1,.989-1.124,4.564,4.564,0,0,1,1.483-.719,10.488,10.488,0,0,1,1.708-.4c.629-.09,1.213-.18,1.843-.27s1.214-.135,1.753-.27a8.932,8.932,0,0,0,1.573-.4,3.165,3.165,0,0,0,1.214-.674v2.831h-.045a13.515,13.515,0,0,1-.135,1.663,5.179,5.179,0,0,1-.719,2.067,4.964,4.964,0,0,1-1.843,1.753,6.8,6.8,0,0,1-3.505.719A11.679,11.679,0,0,1-755.371-211.539Zm113.124-2.472v-7.55h1.933v7.236a.614.614,0,0,0,.674.674,2.439,2.439,0,0,0,1.259-.584v-7.326h1.977v9.3h-1.842v-.9a3.173,3.173,0,0,1-2.382,1.123C-641.663-212.034-642.247-212.8-642.247-214.012Zm19.1-1.528v-2.742c0-2.022.809-3.461,3.011-3.461s3.011,1.438,3.011,3.461v2.742c0,2.022-.809,3.46-3.011,3.46S-623.146-213.517-623.146-215.539Zm1.933-3.1v3.416c0,1.079.36,1.528,1.079,1.528.674,0,1.078-.449,1.078-1.528v-3.416c0-1.079-.4-1.528-1.078-1.528S-621.214-219.719-621.214-218.641Zm-51.91,3.1v-2.742c0-2.022.809-3.461,3.011-3.461s3.011,1.438,3.011,3.461v1.753h-4.09v1.349c0,1.078.4,1.528,1.079,1.528s1.079-.449,1.079-1.528v-.225h1.933c-.045,1.978-.854,3.326-3.011,3.326C-672.315-212.079-673.124-213.517-673.124-215.539Zm1.932-3.1v.494h2.158v-.494c0-1.079-.4-1.528-1.079-1.528S-671.191-219.719-671.191-218.641Zm-21.168,3.1v-2.742c0-2.022.809-3.461,3.011-3.461s3.011,1.438,3.011,3.461v2.742c0,2.022-.809,3.46-3.011,3.46S-692.36-213.517-692.36-215.539Zm1.933-3.1v3.416c0,1.079.36,1.528,1.079,1.528.674,0,1.078-.449,1.078-1.528v-3.416c0-1.079-.36-1.528-1.078-1.528S-690.427-219.719-690.427-218.641Zm-21.124,3.1v-2.742c0-2.022.809-3.461,3.011-3.461s3.011,1.438,3.011,3.461v1.753h-4.09v1.349c0,1.078.36,1.528,1.079,1.528.674,0,1.079-.449,1.079-1.528v-.225h1.933c-.045,1.978-.854,3.326-3.011,3.326C-710.742-212.079-711.551-213.517-711.551-215.539Zm1.932-3.1v.494h2.158v-.494c0-1.079-.36-1.528-1.079-1.528C-709.214-220.169-709.618-219.719-709.618-218.641Zm-13.483,3.1v-2.742c0-2.022.809-3.461,3.011-3.461s3.011,1.438,3.011,3.461v2.742c0,2.022-.809,3.46-3.011,3.46S-723.1-213.517-723.1-215.539Zm1.933-3.1v3.416c0,1.079.36,1.528,1.079,1.528.674,0,1.078-.449,1.078-1.528v-3.416c0-1.079-.36-1.528-1.078-1.528C-720.764-220.169-721.169-219.719-721.169-218.641Zm-10.382,3.371V-221.7a3,3,0,0,1,3.281-3.191,3.1,3.1,0,0,1,3.191,3.416v.9h-2.157v-.944c0-1.034-.494-1.528-1.034-1.528-.854,0-1.169.449-1.169,1.393v6.337c0,.944.27,1.393,1.169,1.393.764,0,1.034-.449,1.034-1.258v-1.528h2.157v1.438a2.97,2.97,0,0,1-3.191,3.191A3,3,0,0,1-731.551-215.27Zm115.685.54,1.708-.449c.135.764.4,1.483,1.3,1.483a.767.767,0,0,0,.854-.809c0-1.618-3.64-2.2-3.64-4.764a2.445,2.445,0,0,1,2.607-2.472,2.822,2.822,0,0,1,2.831,2.472l-1.618.27c-.135-.764-.494-1.169-1.124-1.169-.494,0-.854.27-.854.719,0,1.438,3.64,2.067,3.64,4.809a2.446,2.446,0,0,1-2.741,2.517A2.835,2.835,0,0,1-615.865-214.73Zm-18.786,0v-4.449c0-1.708.764-2.607,1.978-2.607.854,0,1.258.36,2.022.989v-4h1.932v12.539h-1.842v-.989h-.045a2.3,2.3,0,0,1-2.067,1.124C-633.888-212.124-634.652-213.023-634.652-214.73Zm1.933-3.955v3.46c0,1.213.4,1.483.944,1.483a2.22,2.22,0,0,0,1.124-.494v-5.438a2.075,2.075,0,0,0-1.124-.494C-632.315-220.169-632.719-219.9-632.719-218.685Zm-13.978,4.449v-5.753h-1.124v-1.573h1.079v-2.517h1.933v2.517h1.3v1.573h-1.3v5.348c0,.494.224.764.674.764h.629v1.663a2.785,2.785,0,0,1-.944.09C-645.888-212.124-646.7-212.8-646.7-214.236Zm-7.6-.494,1.708-.449c.135.764.4,1.483,1.3,1.483a.768.768,0,0,0,.854-.809c0-1.618-3.64-2.2-3.64-4.764a2.445,2.445,0,0,1,2.607-2.472,2.822,2.822,0,0,1,2.831,2.472l-1.618.27c-.135-.764-.494-1.169-1.124-1.169-.494,0-.854.27-.854.719,0,1.438,3.64,2.067,3.64,4.809a2.425,2.425,0,0,1-2.741,2.517A2.807,2.807,0,0,1-654.292-214.73Zm-26.517,0v-4.449c0-1.708.764-2.607,1.978-2.607.854,0,1.258.36,2.022.989v-4h1.932v12.539h-1.842v-.989h-.045a2.3,2.3,0,0,1-2.067,1.124C-680.045-212.124-680.809-213.023-680.809-214.73Zm1.932-3.955v3.46c0,1.213.4,1.483.944,1.483a2.22,2.22,0,0,0,1.124-.494v-5.438a1.944,1.944,0,0,0-1.124-.494C-678.472-220.169-678.877-219.9-678.877-218.685Zm52.045,6.427v-9.3h1.933v9.3Zm-34.562,0v-12.494h5.753v1.888h-3.6v3.191h2.787v1.888h-2.787v3.685h3.865v1.843Zm-34.652,0v-9.3h1.933v9.3Zm-19.236,0v-12.494h1.933v12.494Zm-51.056-8.449a10.393,10.393,0,0,0-2.831-1.393c-1.078-.359-2.157-.629-3.236-.9-1.078-.224-2.112-.494-3.191-.674a23.931,23.931,0,0,1-2.741-.719,5.878,5.878,0,0,1-1.978-1.034,2,2,0,0,1-.764-1.618,1.959,1.959,0,0,1,.449-1.348,2.953,2.953,0,0,1,1.033-.764,5.729,5.729,0,0,1,1.394-.36c.494-.045.944-.09,1.393-.09a7.815,7.815,0,0,1,3.551.764,3.233,3.233,0,0,1,1.663,2.921h14.2a4.016,4.016,0,0,1,1.528-3.146,5.945,5.945,0,0,1,3.551-.944,12.446,12.446,0,0,1,1.888.135,4.343,4.343,0,0,1,1.573.54,3.1,3.1,0,0,1,1.079,1.078,3.864,3.864,0,0,1,.4,1.933,2,2,0,0,1-.719,1.753,4.686,4.686,0,0,1-2.022.9,22.68,22.68,0,0,1-2.966.494q-1.685.135-3.371.4a30.757,30.757,0,0,0-3.416.719,10.224,10.224,0,0,0-3.011,1.348,6.5,6.5,0,0,0-1.753,1.753A7.022,7.022,0,0,0-766.337-220.708ZM-626.832-223v-1.753h1.933V-223Zm-69.213,0v-1.753h1.933V-223Zm-69.663-7.056a8.275,8.275,0,0,0-2.786-2.652,11.119,11.119,0,0,0-2.472-1.078,12.234,12.234,0,0,0,2.292-1.438,11.387,11.387,0,0,0,3.865-6.157,2.533,2.533,0,0,0,.18.539,13.1,13.1,0,0,0,2.787,4.494,13.812,13.812,0,0,0,3.236,2.337,17.209,17.209,0,0,0-2.067.944,8.954,8.954,0,0,0-3.011,2.787,7.476,7.476,0,0,0-1.034,2.427A6.583,6.583,0,0,0-765.708-230.056Zm21.888-3.551a4.5,4.5,0,0,1-.674-.315,9.064,9.064,0,0,0,1.124-.629,13.38,13.38,0,0,0,1.573-1.213l.045-.045v3.6A7.283,7.283,0,0,0-743.82-233.607Zm-12.225-6.023q-1.686-1.618-1.888-5.258h16.225l-.045,3.371h-3.371a4.9,4.9,0,0,1-2.022,2.382,6.816,6.816,0,0,1-3.955,1.124A6.97,6.97,0,0,1-756.045-239.629Zm-24.674.809a6.526,6.526,0,0,1-1.978-2.022,9.127,9.127,0,0,1-1.034-2.742,13.33,13.33,0,0,1-.315-2.966,14.137,14.137,0,0,1,.315-3.056,9.756,9.756,0,0,1,1.079-2.831,6.991,6.991,0,0,1,2.022-2.112,5.431,5.431,0,0,1,3.056-.809c3.236,0,5.124,1.573,5.618,4.719h6.876a16.542,16.542,0,0,0-.494,4,17.812,17.812,0,0,0,.27,3.146h-6.337a7.07,7.07,0,0,1-1.842,4,5.692,5.692,0,0,1-4.225,1.483A5.38,5.38,0,0,1-780.719-238.82Zm22.742-10.7v-.045a7.46,7.46,0,0,1,.36-1.8,5.571,5.571,0,0,1,1.034-1.888,5.978,5.978,0,0,1,1.933-1.483,6.74,6.74,0,0,1,3.056-.585,5.515,5.515,0,0,1,4.18,1.483,8.734,8.734,0,0,1,1.888,4.315Zm-7.73-5.708a9.941,9.941,0,0,0-2.921-3.191,10.184,10.184,0,0,0-.9-.585h10.472a10.719,10.719,0,0,0-2.562,2.158,12.832,12.832,0,0,0-2.876,4.539c-.045.09-.045.18-.09.225A10.07,10.07,0,0,0-765.708-255.225ZM-744.18-259h2.382v1.573l.045.4A11.421,11.421,0,0,0-744.18-259Z" transform="translate(1816 594)"/>
</svg>
